<svg id="Layer_1" data-name="Layer 1" xmlns="http://www.w3.org/2000/svg" viewBox="0 0 99.65 99.65"><defs><style>.cls-1{fill:#dbdbdb;}.cls-2{fill:#babab9;}.cls-3{fill:#a8a8a8;}</style></defs><rect class="cls-1" width="99.65" height="99.65"/><path class="cls-2" d="M81.67,95.1l-6.59-3.65s-3.51-.61-4.68-1.83-1.13.65-1.13.65L68.94,89s-4.4-1.49-5.66-2.64c-3.17-2.86-3.44-8.67-3-13.56a25.58,25.58,0,0,0,4.91-5.47l.36-.21A32.25,32.25,0,0,0,69.7,65a15.83,15.83,0,0,1-1.61,4.11,7.91,7.91,0,0,1-1.81-1.42,7.36,7.36,0,0,0,1.66,1.68c-.08.11-.15.22-.23.32-1.29,1.8-2.79-.49-2.79-.49a2.34,2.34,0,0,0,1.4,1.39c.6.42,1.28-.06,2-1a4.46,4.46,0,0,0,2,.69h0c-.08.22-.16.43-.25.62.11-.18.22-.39.34-.61,3.06.13,3.88-5.6,4.11-8.6l.62-.9a22.37,22.37,0,0,0,4.12-5.48c-.74,2.22-1.53,3.94-1.53,3.94a35.76,35.76,0,0,0,2.09-5.09c.16-.36.31-.72.45-1.1a45,45,0,0,1-1.78,4.77c3.78-7.58,3-12.12,3-12.12l0,0a24.52,24.52,0,0,0-1-5.86c-7.92-27.8-18.49-26.8-20-27s-5.52,2.49-5.52,2.49S41.64,5.85,28.65,26.56C24.43,33.29,22.18,39,21.23,43.78c-.36.88-.75,1.85-1.15,2.91-.95,2.49-.42,3.73.66,4.3a21.1,21.1,0,0,0,.56,3.55c0,.62,0,1.27.09,1.93a9.49,9.49,0,0,0-.61,1.73,2.51,2.51,0,0,0,.52,2.56l0,.44A4.47,4.47,0,0,0,24,65.9a34.4,34.4,0,0,0,7.88,10.22c.71.93,1.48,1.87,2.29,2.82-.62-.75-1.29-1.61-2-2.54a52.79,52.79,0,0,0,6.69,5.06,46,46,0,0,1-7.81-6.83,12.24,12.24,0,0,1-1.71-5.94c1.07,3.2,3.45,8.51,8.09,11.39a9.9,9.9,0,0,1-3.65-4.8,5.18,5.18,0,0,0,1.8.1,17.1,17.1,0,0,0,4.88-3s-4.33,2.93-7,1.85a17,17,0,0,1-.37-6.31,3.35,3.35,0,0,0,.45-.27,5.19,5.19,0,0,0,3.13-.49,27.74,27.74,0,0,0,3.82,4.94c.08,3.81-.19,8.7-1.84,11.33s-8.29,5.6-8.29,5.6l-1.58,1.48-.88-.3c-.88-.3-2.63,1.82-2.63,1.82L20.18,93.3l-6.73,6h72.3v-1C85.75,97.38,81.67,95.1,81.67,95.1ZM72.79,62.86c0,.08,0,.15,0,.22L72,64.49c0-.34.07-.7.1-1.07C72.3,63.24,72.55,63.06,72.79,62.86ZM26.53,64.05a1.33,1.33,0,0,1-1.3-1.54C25.66,63.07,26.1,63.58,26.53,64.05Zm.88.94.12.12,0,.16a7.51,7.51,0,0,1-1.54.08c-.09-.24-.19-.48-.28-.71A3.93,3.93,0,0,0,27.41,65ZM22.51,58a18.37,18.37,0,0,0,1.16,2.21c0,.16.09.33.14.5a3.82,3.82,0,0,1-.85-.11c-.2-.77-.38-1.56-.51-2.36Zm.7,3.45h.28a3.39,3.39,0,0,0-.15.41C23.29,61.77,23.25,61.63,23.21,61.49Zm.94.35c.13.42.28.84.44,1.27a2.12,2.12,0,0,0,.27.73c.19.48.38,1,.59,1.45a6.94,6.94,0,0,1-.78-.18l-.1-.19-.1-.09c-.23-.51-.45-1-.65-1.55A3.67,3.67,0,0,1,24.15,61.84ZM25.9,66.3l0,.07-.11-.08Zm.51,0a9,9,0,0,0,1.32-.14c.08.38.17.79.27,1.21a7.15,7.15,0,0,1-1.38-.58Zm42.08,3A28.24,28.24,0,0,0,71,64.19l.71-.5c0,.42-.12,1-.21,1.55-.21.35-.34.55-.34.55l.33-.47a29,29,0,0,1-1,4.47A3.72,3.72,0,0,1,68.49,69.33Zm4.21-1.72c-.48,1.42-1.23,2-2,2.16a18.25,18.25,0,0,0,1.28-5.1c.33-.46.64-.92.93-1.35A9.69,9.69,0,0,1,72.7,67.61Zm1.82-6.09v-.14l.18-.17ZM21.06,44.68a27,27,0,0,0-.36,5.67C19.58,50,20.09,47.46,21.06,44.68Zm.47,13.11c0,.3.09.61.14.93s-.16.62-.23,1A3.56,3.56,0,0,1,21.53,57.79ZM22,61.21l.26.1c.26.9.57,1.81.94,2.74a4.07,4.07,0,0,0,.13.5C22.25,64,22,62.62,22,61.21Zm3.78,6.19a7,7,0,0,0,.87.43,50.44,50.44,0,0,0,3,5.18A38.34,38.34,0,0,1,25.78,67.4Zm4.83,6.68a48.86,48.86,0,0,1-3.42-6,8.2,8.2,0,0,0,1.06.3,19.42,19.42,0,0,0,2.59,6A2.85,2.85,0,0,1,30.61,74.08Z" transform="translate(-0.35)"/><path class="cls-3" d="M38.91,81.46Z" transform="translate(-0.35)"/><path class="cls-3" d="M38.22,83.26c-1.47-1.46-2.8-2.9-4-4.32A45.23,45.23,0,0,0,38.22,83.26Z" transform="translate(-0.35)"/><path class="cls-3" d="M37.48,80.08a5.84,5.84,0,0,0,1,.59A11.66,11.66,0,0,1,37.48,80.08Z" transform="translate(-0.35)"/><path class="cls-3" d="M66.28,67.7l-.06-.09S66.24,67.66,66.28,67.7Z" transform="translate(-0.35)"/><path class="cls-3" d="M69,72.2a2.43,2.43,0,0,0,1-1.28A4.5,4.5,0,0,1,69,72.2Z" transform="translate(-0.35)"/></svg>