<svg id="Layer_1" data-name="Layer 1" xmlns="http://www.w3.org/2000/svg" viewBox="0 0 99.79 99.79"><defs><style>.cls-1{fill:#dbdbdb;}.cls-2{fill:#babab9;}</style></defs><rect class="cls-1" width="99.79" height="99.79"/><path class="cls-2" d="M79.28,95.54,72.79,92s-3.47-.6-4.62-1.8-1.12.63-1.12.63l-.33-1.23s-4.34-1.48-5.58-2.6a9.76,9.76,0,0,1-2.72-5.48,11.21,11.21,0,0,0,6.24-1.66c.28.15.53.28.77.39a14.21,14.21,0,0,1-4.59,1.13s4.6.12,6.56-.81A5.48,5.48,0,0,0,69,79.87a16.56,16.56,0,0,0,7.72-9.8c6.12-21,.18-32.44-2.26-36-.64-.94-1.1-2-1.77-2.92-9.07-12.5-13.8-10.59-15.54-10.24a.75.75,0,0,1-.64-.17c-5.25-4.48-16.71-1.06-18.13-.29-.05,0-19.16,8.38-21.26,37.66-.54,7.43,3.75,18.95,11,23.3,4.15,2.5,7.51,1.79,9.62.74a9.25,9.25,0,0,1-.86,1.9c-1.55,2.47-8.17,5.52-8.17,5.52l-1.56,1.47-.86-.3c-.87-.3-2.6,1.8-2.6,1.8l-5,1.19L12,99.59H83.32v-.9C83.32,97.79,79.28,95.54,79.28,95.54ZM37.67,78.84a1.18,1.18,0,0,0,.19.11l-.39.12A.85.85,0,0,0,37.67,78.84Zm-6.74-6A20.06,20.06,0,0,0,32,76a13.56,13.56,0,0,1-2.92-5.83A26.06,26.06,0,0,0,30.93,72.86Zm-.15,4.3c-2-1.88-2.87-5-3.22-8,1.38,4.49,3.25,6.81,5,8,.21.37.43.7.64,1A5.75,5.75,0,0,1,30.78,77.16Zm3.24,1-.3-.47a6.55,6.55,0,0,0,1.47.41A7.91,7.91,0,0,1,34,78.21Zm2-.23a6.2,6.2,0,0,1-2.69-.88,13.58,13.58,0,0,1-.92-2.46,24.57,24.57,0,0,0,3.8,3.29Zm2.11,2.66h-.06L38,80.6l-.47-.16a.73.73,0,0,1-.45-.75c.4-.14.83-.29,1.27-.48l.09.05Q38.31,80,38.17,80.64Zm20.5.36A8.55,8.55,0,0,0,61,79.65a16.27,16.27,0,0,0,2.69-.4l0,0A10.21,10.21,0,0,1,58.67,81Zm7-7.73A25.79,25.79,0,0,0,68,69.79a8.78,8.78,0,0,1-3.09,4.81C65.18,74.18,65.41,73.74,65.64,73.27Zm-1.09,2c2.09-1,4.49-3.55,5.51-9.85a26.87,26.87,0,0,0,.85-2.72A34.11,34.11,0,0,1,68.76,72c-.55,1.22-2.34,2.54-4.46,3.74C64.39,75.56,64.47,75.42,64.55,75.28Zm-1.8,1-.21.36-.5.25C62.28,76.68,62.52,76.48,62.75,76.27ZM62,78.86l-.29.11.08-.08Zm-1.94-.54a.75.75,0,0,0,.6.7l-.4.37a16,16,0,0,1-2.1.33l0-.28C58.8,79.1,59.45,78.72,60.07,78.32Zm-1.9,1.42c.26,0,.9,0,1.7,0a6.77,6.77,0,0,1-1.59,1C58.24,80.36,58.2,80.05,58.17,79.74Z"/></svg>