<svg id="Layer_1" data-name="Layer 1" xmlns="http://www.w3.org/2000/svg" viewBox="0 0 100 100"><defs><style>.cls-1{fill:#dbdbdb;}.cls-2{fill:#a8a8a8;}.cls-3{fill:#babab9;}</style></defs><rect class="cls-1" width="100" height="100"/><path class="cls-2" d="M68.07,44.76a2.08,2.08,0,0,1-.45.58C68,44.75,68.25,44.41,68.07,44.76Z"/><path class="cls-2" d="M28.67,45.34a1.91,1.91,0,0,1-.45-.58C28,44.41,28.31,44.75,28.67,45.34Z"/><path class="cls-3" d="M89.48,98.91c-.85-1.71-7-6.11-10.25-7.11a65.63,65.63,0,0,1-8.86-3.27l0,0L70,87.9c.12-.12.15-.2.06-.22-1-.25-2.57-9.22-2.57-9.22s0,.11,0,.16v-.16c-1.6-.38-3.1-.71-4.65-1a51.17,51.17,0,0,1-.74-8,18.13,18.13,0,0,0,3.5-5.44,60.68,60.68,0,0,0,1.58-5.92A2.46,2.46,0,0,0,69,57.28c.7-.87.87-6.43,1.4-8,.39-1.14.68-2.85.12-3.61l.16-.09c1.32-.66,2.2-4.79,2.2-16.35,0-12-4.83-12.18-4.83-12.18V15.49s-5.71,2.26-5.34,0-5-4.35-5-4.35l-1.47.17a76.54,76.54,0,0,1-7.94-1c-6.64-1-3.16,1.56-7.23,1.56s-4.25,1.57-4.25,1.57-2.59,1-7,4.87-4.25,16.53-3.7,17.4-.74,5,0,6.26c.23.37.77,1.34,1.41,2.52-1,0-2,.84-1.72,4,.35,4.18.78.94,2.29,8.7.87,4.52,2.45,1,2.45,1s1.48,7.2,5,12.36c0,1.8,0,4.65.12,6.95-1.49.28-3,.61-4.49,1v.19s0-.08,0-.11-1.53,9-2.51,9.25c-.14,0,0,.17.27.39L27.71,89a8.75,8.75,0,0,1-1.63,1l-3,1.41-2.45.64a12.44,12.44,0,0,0-5.54,3.09l-5,4.83H89.93S90,99.89,89.48,98.91ZM30.6,50.24l0,.08,0,.18S30.64,50.4,30.6,50.24Z"/></svg>