<svg id="Layer_1" data-name="Layer 1" xmlns="http://www.w3.org/2000/svg" xmlns:xlink="http://www.w3.org/1999/xlink" viewBox="0 0 777.02 151.99"><defs><style>.cls-1{font-size:80px;fill:#374161;font-family:Futura-Medium, Futura;font-weight:500;letter-spacing:0.07em;}.cls-2{letter-spacing:0.03em;}.cls-3{opacity:0.22;}.cls-4{fill:#5895f2;}.cls-5{fill:#009245;}.cls-6{fill:#cd6047;}.cls-7,.cls-8,.cls-9{opacity:0.8;}.cls-7{fill:url(#linear-gradient);}.cls-8{fill:url(#linear-gradient-2);}.cls-9{fill:url(#linear-gradient-3);}</style><linearGradient id="linear-gradient" x1="202.53" y1="241.14" x2="306.11" y2="241.14" gradientUnits="userSpaceOnUse"><stop offset="0.36" stop-color="#8e3fff"/><stop offset="1" stop-color="#2d4fc2"/><stop offset="1" stop-color="blue"/></linearGradient><linearGradient id="linear-gradient-2" x1="168.42" y1="279.65" x2="203.42" y2="279.65" gradientUnits="userSpaceOnUse"><stop offset="0" stop-color="#1a0"/><stop offset="0.39" stop-color="#0aaa43"/><stop offset="0.81" stop-color="#03a984"/><stop offset="1" stop-color="#00a99d"/></linearGradient><linearGradient id="linear-gradient-3" x1="203.39" y1="316.16" x2="306.47" y2="316.16" gradientUnits="userSpaceOnUse"><stop offset="0" stop-color="#c1272d"/><stop offset="0.64" stop-color="#d03f63"/><stop offset="1" stop-color="#d74a7c"/></linearGradient></defs><text class="cls-1" transform="translate(153.81 104.83)">CRE<tspan class="cls-2" x="167.45" y="0">A</tspan><tspan x="229.35" y="0">TIVEITEM</tspan></text><g class="cls-3"><path class="cls-4" d="M169.13,277.89l.08-23.4c0-4.41-.27-10.4,2.28-14.71s7.94-7,11.8-9.11l40.62-22.55c3.86-2.14,8.9-5.23,14-5.12s10.32,3.43,14.23,5.74l19,11.26" transform="translate(-168.42 -203)"/><path class="cls-5" d="M272.92,338l-20.87,11.56c-3.85,2.14-8.73,5.54-13.85,5.42s-10.49-3.74-14.4-6.05l-40.65-24c-4.16-2.46-9.46-4.94-12.05-9.72C168.82,311,169,304.61,169,300.48l.12-22.55" transform="translate(-168.42 -203)"/><path class="cls-6" d="M271.05,219.79l20.49,11.84c3.94,2.27,9.44,4.77,12,9.18s2.34,10.71,2.37,15.12l.32,47.05c0,4.59,0,10.58-2.73,15-2.48,4.12-7.43,6.83-11.1,8.91L272.93,338" transform="translate(-168.42 -203)"/></g><path class="cls-7" d="M202.53,220.94l20.57-11.56c3.87-2.17,9-5.39,14.08-5.39s10.22,3.24,14.09,5.43l40.78,23.06c3.87,2.19,9.18,4.91,11.73,9.28s2.33,10.41,2.32,14.86l0,21.66" transform="translate(-168.42 -203)"/><path class="cls-8" d="M203.42,338.35,182.49,326.5c-3.87-2.19-9.37-4.62-11.92-9s-2.13-10.71-2.13-15.16l.07-46.22c0-4.73-.55-10.43,2.31-15,2.51-4,8.19-7,11.83-9.08L202.49,221" transform="translate(-168.42 -203)"/><path class="cls-9" d="M306.16,278l.21,23.17c0,4.45.69,10.33-1.83,14.73s-8.19,7.29-12.05,9.51l-41.1,23.64c-4,2.3-9.3,5.23-14.62,5.18-4.89,0-9.83-2.88-13.56-4.94l-19.82-10.95" transform="translate(-168.42 -203)"/></svg>